<svg xmlns="http://www.w3.org/2000/svg" width="1920" height="300"><path d="M90,529L-235,562L680,568Z" fill="#798bb8" stroke="#798bb8" stroke-width="1.51"/><path d="M69,-282L635,-229L881,-259Z" fill="#cde2f1" stroke="#cde2f1" stroke-width="1.51"/><path d="M680,568L-235,562L939,586Z" fill="#6981af" stroke="#6981af" stroke-width="1.51"/><path d="M881,-259L1144,-265L1507,-289Z" fill="#a6c8e4" stroke="#a6c8e4" stroke-width="1.51"/><path d="M69,-282L881,-259L1507,-289Z" fill="#bcd9ec" stroke="#bcd9ec" stroke-width="1.51"/><path d="M1507,-289L1723,-213L2022,-199Z" fill="#8ea6d1" stroke="#8ea6d1" stroke-width="1.51"/><path d="M2022,-199L2047,-140L2081,-112Z" fill="#7c8fbc" stroke="#7c8fbc" stroke-width="1.51"/><path d="M2081,-112L1972,185L2125,191Z" fill="#527caf" stroke="#527caf" stroke-width="1.51"/><path d="M2081,-112L2125,191L2144,278Z" fill="#4976a9" stroke="#4976a9" stroke-width="1.51"/><path d="M2005,445L1740,559L2182,505Z" fill="#094a93" stroke="#094a93" stroke-width="1.51"/><path d="M2144,278L2005,445L2182,505Z" fill="#135194" stroke="#135194" stroke-width="1.51"/><path d="M1906,-87L1972,185L2081,-112Z" fill="#6889ba" stroke="#6889ba" stroke-width="1.51"/><path d="M2125,191L1977,244L2144,278Z" fill="#3069a4" stroke="#3069a4" stroke-width="1.51"/><path d="M1977,244L2005,445L2144,278Z" fill="#2160a1" stroke="#2160a1" stroke-width="1.51"/><path d="M1152,517L939,586L1605,563Z" fill="#2e68a2" stroke="#2e68a2" stroke-width="1.51"/><path d="M1972,185L1977,244L2125,191Z" fill="#3870ab" stroke="#3870ab" stroke-width="1.51"/><path d="M2047,-140L1906,-87L2081,-112Z" fill="#798fbe" stroke="#798fbe" stroke-width="1.51"/><path d="M1906,-87L1809,100L1972,185Z" fill="#5c88bd" stroke="#5c88bd" stroke-width="1.51"/><path d="M1858,410L1740,559L2005,445Z" fill="#0d559f" stroke="#0d559f" stroke-width="1.51"/><path d="M1977,244L1858,410L2005,445Z" fill="#195fa5" stroke="#195fa5" stroke-width="1.51"/><path d="M2022,-199L1906,-87L2047,-140Z" fill="#7d92c0" stroke="#7d92c0" stroke-width="1.51"/><path d="M1723,-213L1906,-87L2022,-199Z" fill="#839ac9" stroke="#839ac9" stroke-width="1.51"/><path d="M1494,521L1152,517L1605,563Z" fill="#2362a2" stroke="#2362a2" stroke-width="1.51"/><path d="M1972,185L1809,100L1977,244Z" fill="#3f7ab6" stroke="#3f7ab6" stroke-width="1.51"/><path d="M1809,100L1858,410L1977,244Z" fill="#3073b3" stroke="#3073b3" stroke-width="1.51"/><path d="M1809,100L1641,117L1858,410Z" fill="#3c7eba" stroke="#3c7eba" stroke-width="1.51"/><path d="M1641,117L1575,355L1858,410Z" fill="#2c78b7" stroke="#2c78b7" stroke-width="1.51"/><path d="M1760,5L1809,100L1906,-87Z" fill="#6a91c3" stroke="#6a91c3" stroke-width="1.51"/><path d="M1723,-213L1760,5L1906,-87Z" fill="#7d9acb" stroke="#7d9acb" stroke-width="1.51"/><path d="M1575,355L1740,559L1858,410Z" fill="#1760a8" stroke="#1760a8" stroke-width="1.51"/><path d="M1760,5L1641,117L1809,100Z" fill="#5d90c3" stroke="#5d90c3" stroke-width="1.51"/><path d="M1575,355L1605,563L1740,559Z" fill="#155ea5" stroke="#155ea5" stroke-width="1.51"/><path d="M1723,-213L1532,17L1760,5Z" fill="#7b9fce" stroke="#7b9fce" stroke-width="1.51"/><path d="M1532,17L1641,117L1760,5Z" fill="#6698c9" stroke="#6698c9" stroke-width="1.51"/><path d="M1498,-247L1532,17L1723,-213Z" fill="#88a9d5" stroke="#88a9d5" stroke-width="1.51"/><path d="M1507,-289L1498,-247L1723,-213Z" fill="#94b0d9" stroke="#94b0d9" stroke-width="1.51"/><path d="M1575,355L1494,521L1605,563Z" fill="#1a63aa" stroke="#1a63aa" stroke-width="1.51"/><path d="M1362,176L1575,355L1641,117Z" fill="#418ac2" stroke="#418ac2" stroke-width="1.51"/><path d="M1532,17L1362,176L1641,117Z" fill="#5b99ca" stroke="#5b99ca" stroke-width="1.51"/><path d="M1498,-247L1356,3L1532,17Z" fill="#84abd6" stroke="#84abd6" stroke-width="1.51"/><path d="M1377,388L1494,521L1575,355Z" fill="#2570b3" stroke="#2570b3" stroke-width="1.51"/><path d="M1362,176L1377,388L1575,355Z" fill="#3583be" stroke="#3583be" stroke-width="1.51"/><path d="M1356,3L1362,176L1532,17Z" fill="#69a2ce" stroke="#69a2ce" stroke-width="1.51"/><path d="M1144,-265L1356,3L1498,-247Z" fill="#93b9dd" stroke="#93b9dd" stroke-width="1.51"/><path d="M1144,-265L1498,-247L1507,-289Z" fill="#9dbddf" stroke="#9dbddf" stroke-width="1.51"/><path d="M1377,388L1152,517L1494,521Z" fill="#296fb0" stroke="#296fb0" stroke-width="1.51"/><path d="M1130,-11L1313,30L1356,3Z" fill="#7bb0d6" stroke="#7bb0d6" stroke-width="1.51"/><path d="M1144,-265L1130,-11L1356,3Z" fill="#8fbadd" stroke="#8fbadd" stroke-width="1.51"/><path d="M1356,3L1313,30L1362,176Z" fill="#6aa6d0" stroke="#6aa6d0" stroke-width="1.51"/><path d="M1362,176L1162,242L1377,388Z" fill="#418fc5" stroke="#418fc5" stroke-width="1.51"/><path d="M1162,242L1115,423L1377,388Z" fill="#3b87c1" stroke="#3b87c1" stroke-width="1.51"/><path d="M1115,423L1152,517L1377,388Z" fill="#347ab7" stroke="#347ab7" stroke-width="1.51"/><path d="M1313,30L1161,140L1362,176Z" fill="#61a4d0" stroke="#61a4d0" stroke-width="1.51"/><path d="M1161,140L1162,242L1362,176Z" fill="#549dcc" stroke="#549dcc" stroke-width="1.51"/><path d="M1065,-145L1130,-11L1144,-265Z" fill="#9ac1e1" stroke="#9ac1e1" stroke-width="1.51"/><path d="M1130,-11L1161,140L1313,30Z" fill="#75afd5" stroke="#75afd5" stroke-width="1.51"/><path d="M1130,-11L957,106L1161,140Z" fill="#75b1d7" stroke="#75b1d7" stroke-width="1.51"/><path d="M957,106L988,169L1161,140Z" fill="#6aacd5" stroke="#6aacd5" stroke-width="1.51"/><path d="M1003,291L1115,423L1162,242Z" fill="#4991c7" stroke="#4991c7" stroke-width="1.51"/><path d="M1161,140L988,169L1162,242Z" fill="#5da3d0" stroke="#5da3d0" stroke-width="1.51"/><path d="M988,169L1003,291L1162,242Z" fill="#579fce" stroke="#579fce" stroke-width="1.51"/><path d="M1115,423L939,586L1152,517Z" fill="#3c76b1" stroke="#3c76b1" stroke-width="1.51"/><path d="M881,-259L1065,-145L1144,-265Z" fill="#a8cbe6" stroke="#a8cbe6" stroke-width="1.51"/><path d="M1065,-145L957,106L1130,-11Z" fill="#8bbcdd" stroke="#8bbcdd" stroke-width="1.51"/><path d="M841,-53L957,106L1065,-145Z" fill="#93c1e0" stroke="#93c1e0" stroke-width="1.51"/><path d="M1003,291L939,586L1115,423Z" fill="#4484bd" stroke="#4484bd" stroke-width="1.51"/><path d="M988,169L947,241L1003,291Z" fill="#5ca2cf" stroke="#5ca2cf" stroke-width="1.51"/><path d="M881,-259L841,-53L1065,-145Z" fill="#a6cbe6" stroke="#a6cbe6" stroke-width="1.51"/><path d="M717,278L680,568L939,586Z" fill="#5787bd" stroke="#5787bd" stroke-width="1.51"/><path d="M947,241L717,278L1003,291Z" fill="#5ea2cf" stroke="#5ea2cf" stroke-width="1.51"/><path d="M717,278L939,586L1003,291Z" fill="#5390c6" stroke="#5390c6" stroke-width="1.51"/><path d="M957,106L947,241L988,169Z" fill="#68abd5" stroke="#68abd5" stroke-width="1.51"/><path d="M841,-53L739,19L957,106Z" fill="#91c2df" stroke="#91c2df" stroke-width="1.51"/><path d="M739,19L723,120L957,106Z" fill="#88bddc" stroke="#88bddc" stroke-width="1.51"/><path d="M723,120L947,241L957,106Z" fill="#72b1d7" stroke="#72b1d7" stroke-width="1.51"/><path d="M723,120L717,278L947,241Z" fill="#6fadd5" stroke="#6fadd5" stroke-width="1.51"/><path d="M635,-229L841,-53L881,-259Z" fill="#b3d3e9" stroke="#b3d3e9" stroke-width="1.51"/><path d="M559,494L90,529L680,568Z" fill="#6d89b9" stroke="#6d89b9" stroke-width="1.51"/><path d="M635,-229L739,19L841,-53Z" fill="#adcfe7" stroke="#adcfe7" stroke-width="1.51"/><path d="M295,449L90,529L559,494Z" fill="#7892c5" stroke="#7892c5" stroke-width="1.51"/><path d="M69,-282L413,-127L635,-229Z" fill="#d3e4f3" stroke="#d3e4f3" stroke-width="1.51"/><path d="M473,90L560,347L717,278Z" fill="#7db2d7" stroke="#7db2d7" stroke-width="1.51"/><path d="M559,494L680,568L717,278Z" fill="#6490c3" stroke="#6490c3" stroke-width="1.51"/><path d="M560,347L559,494L717,278Z" fill="#6c9ecc" stroke="#6c9ecc" stroke-width="1.51"/><path d="M473,90L717,278L723,120Z" fill="#84badb" stroke="#84badb" stroke-width="1.51"/><path d="M635,-229L562,-143L739,19Z" fill="#b7d5e9" stroke="#b7d5e9" stroke-width="1.51"/><path d="M551,19L723,120L739,19Z" fill="#99c7e0" stroke="#99c7e0" stroke-width="1.51"/><path d="M562,-143L551,19L739,19Z" fill="#add0e6" stroke="#add0e6" stroke-width="1.51"/><path d="M551,19L473,90L723,120Z" fill="#9ac6e1" stroke="#9ac6e1" stroke-width="1.51"/><path d="M413,-127L562,-143L635,-229Z" fill="#c3dced" stroke="#c3dced" stroke-width="1.51"/><path d="M473,90L346,139L560,347Z" fill="#8cbbdd" stroke="#8cbbdd" stroke-width="1.51"/><path d="M346,139L346,368L560,347Z" fill="#82b0d7" stroke="#82b0d7" stroke-width="1.51"/><path d="M346,368L559,494L560,347Z" fill="#739ccc" stroke="#739ccc" stroke-width="1.51"/><path d="M413,-127L551,19L562,-143Z" fill="#bcd6eb" stroke="#bcd6eb" stroke-width="1.51"/><path d="M346,368L295,449L559,494Z" fill="#7698c9" stroke="#7698c9" stroke-width="1.51"/><path d="M413,-127L473,90L551,19Z" fill="#b1d2e7" stroke="#b1d2e7" stroke-width="1.51"/><path d="M413,-127L292,29L473,90Z" fill="#b6d4e9" stroke="#b6d4e9" stroke-width="1.51"/><path d="M292,29L346,139L473,90Z" fill="#a6cbe4" stroke="#a6cbe4" stroke-width="1.51"/><path d="M69,-282L292,29L413,-127Z" fill="#cfe0f2" stroke="#cfe0f2" stroke-width="1.51"/><path d="M69,-282L65,19L177,60Z" fill="#cde0f1" stroke="#cde0f1" stroke-width="1.51"/><path d="M69,-282L177,60L292,29Z" fill="#cadef1" stroke="#cadef1" stroke-width="1.51"/><path d="M83,314L295,449L346,368Z" fill="#83a5d3" stroke="#83a5d3" stroke-width="1.51"/><path d="M292,29L177,60L346,139Z" fill="#accfe6" stroke="#accfe6" stroke-width="1.51"/><path d="M83,314L346,368L346,139Z" fill="#8cb6db" stroke="#8cb6db" stroke-width="1.51"/><path d="M177,60L83,314L346,139Z" fill="#9dc5e3" stroke="#9dc5e3" stroke-width="1.51"/><path d="M83,314L90,529L295,449Z" fill="#83a0ce" stroke="#83a0ce" stroke-width="1.51"/><path d="M59,19L65,19L69,-282Z" fill="#d1e2f2" stroke="#d1e2f2" stroke-width="1.51"/><path d="M-117,-149L59,19L69,-282Z" fill="#d9e8f5" stroke="#d9e8f5" stroke-width="1.51"/><path d="M65,19L59,19L83,314Z" fill="#accfe7" stroke="#accfe7" stroke-width="1.51"/><path d="M59,19L-102,137L83,314Z" fill="#a7cbe6" stroke="#a7cbe6" stroke-width="1.51"/><path d="M65,19L83,314L177,60Z" fill="#a8cce7" stroke="#a8cce7" stroke-width="1.51"/><path d="M-73,413L-110,429L90,529Z" fill="#89a0cd" stroke="#89a0cd" stroke-width="1.51"/><path d="M-110,429L-235,562L90,529Z" fill="#8799c6" stroke="#8799c6" stroke-width="1.51"/><path d="M83,314L-73,413L90,529Z" fill="#89a4d1" stroke="#89a4d1" stroke-width="1.51"/><path d="M-102,137L-73,413L83,314Z" fill="#97badd" stroke="#97badd" stroke-width="1.51"/><path d="M-178,-279L-117,-149L69,-282Z" fill="#e7f1fa" stroke="#e7f1fa" stroke-width="1.51"/><path d="M-102,137L-183,361L-73,413Z" fill="#99badd" stroke="#99badd" stroke-width="1.51"/><path d="M-203,55L-102,137L59,19Z" fill="#bcd9eb" stroke="#bcd9eb" stroke-width="1.51"/><path d="M-117,-149L-203,55L59,19Z" fill="#cde1f1" stroke="#cde1f1" stroke-width="1.51"/><path d="M-203,55L-193,115L-102,137Z" fill="#b9d7eb" stroke="#b9d7eb" stroke-width="1.51"/><path d="M-193,115L-183,361L-102,137Z" fill="#a7c9e5" stroke="#a7c9e5" stroke-width="1.51"/><path d="M-183,361L-110,429L-73,413Z" fill="#90aad5" stroke="#90aad5" stroke-width="1.51"/><path d="M-183,361L-235,562L-110,429Z" fill="#8fa4d0" stroke="#8fa4d0" stroke-width="1.51"/><path d="M-178,-279L-203,55L-117,-149Z" fill="#dfebf8" stroke="#dfebf8" stroke-width="1.51"/><path d="M-193,115L-235,562L-183,361Z" fill="#98b5db" stroke="#98b5db" stroke-width="1.51"/><path d="M-203,55L-235,562L-193,115Z" fill="#a4c5e3" stroke="#a4c5e3" stroke-width="1.51"/></svg>